<svg width="64" height="64" viewBox="0 0 64 64" fill="none" xmlns="http://www.w3.org/2000/svg">
<g clip-path="url(#clip0_247_18)">
<path d="M24.4673 63.8457C24.4551 63.8737 24.4551 63.9054 24.4671 63.9334C24.4846 63.9738 24.5244 64 24.5685 64H31.815C36.2522 64 40.2654 61.3641 42.0281 57.292L62.7429 9.43592C64.673 4.97695 61.4041 0 56.5453 0C53.8515 0 51.4153 1.60099 50.3464 4.07373L35.7471 37.8483C35.7455 37.8519 35.7472 37.856 35.7507 37.8575C35.7542 37.859 35.7558 37.8631 35.7543 37.8666L32.3479 45.7096L24.4673 63.8457Z" fill="white"/>
<path d="M13.9077 39.4578C16.4255 45.2939 24.6969 45.3045 27.2297 39.4749C28.0239 37.6468 28.0315 35.5726 27.2507 33.7388L14.7839 4.46081C13.6321 1.75576 10.9762 0 8.03609 0C2.76325 0 -0.786749 5.39785 1.30201 10.2393L13.9077 39.4578Z" fill="white"/>
</g>
<defs>
<clipPath id="clip0_247_18">
<rect width="64" height="64" fill="white"/>
</clipPath>
</defs>
</svg>
