<svg width="64" height="64" viewBox="0 0 64 64" fill="none" xmlns="http://www.w3.org/2000/svg">
<path d="M56 34.1067C55.5806 38.6459 53.877 42.9717 51.0887 46.5781C48.3004 50.1845 44.5427 52.9221 40.2553 54.4708C35.9678 56.0194 31.328 56.315 26.8787 55.3229C22.4294 54.3308 18.3547 52.0921 15.1313 48.8687C11.9079 45.6454 9.66921 41.5706 8.67713 37.1213C7.68504 32.672 7.98062 28.0322 9.52927 23.7448C11.0779 19.4574 13.8156 15.6996 17.4219 12.9113C21.0283 10.123 25.3542 8.41948 29.8934 8C27.2358 11.5954 25.957 16.0252 26.2895 20.4838C26.6219 24.9423 28.5437 29.1335 31.7051 32.2949C34.8666 35.4564 39.0577 37.3781 43.5163 37.7106C47.9748 38.0431 52.4047 36.7642 56 34.1067Z" stroke="#111111" stroke-width="5.33333" stroke-linecap="round" stroke-linejoin="round"/>
</svg>
